<?xml version="1.0" encoding="UTF-8"?>
<svg xmlns="http://www.w3.org/2000/svg" id="Layer_3" data-name="Layer 3" viewBox="0 0 64 64" width="512" height="512"><path d="M38.339,36.925a19.931,19.931,0,0,0-5.344-25.919,9.774,9.774,0,0,0-4.911-8.395A12.235,12.235,0,0,0,22.02,1H19.98a12.235,12.235,0,0,0-6.064,1.611,9.774,9.774,0,0,0-4.911,8.4A19.985,19.985,0,0,0,14.24,45.815L12.42,49H4a3,3,0,0,0-3,3v8a3,3,0,0,0,3,3H30a3,3,0,0,0,3-3V52a3,3,0,0,0-3-3H21.58l-1.153-2.018c.191.006.382.018.573.018a19.843,19.843,0,0,0,9.925-2.661L48.05,61.464a5.243,5.243,0,0,0,7.415-7.414ZM14.908,4.347A10.242,10.242,0,0,1,19.98,3h2.04a10.242,10.242,0,0,1,5.072,1.347A7.72,7.72,0,0,1,30,14.86V13.817a6.969,6.969,0,0,0-1.176-3.883l-.992-1.489A1,1,0,0,0,26.4,8.2l-1.333,1a9.052,9.052,0,0,1-5.4,1.8H17a5.008,5.008,0,0,0-4.9,4.018A7.706,7.706,0,0,1,14.908,4.347ZM17,26.05v3.1l-1.607.268a9.35,9.35,0,0,0-5.2,2.762A11.923,11.923,0,0,1,12.06,19.007,9.007,9.007,0,0,0,17,26.05Zm2,.718a8.737,8.737,0,0,0,4,0v2.661a4.394,4.394,0,0,1-4,0ZM21,25a7.008,7.008,0,0,1-7-7V16a3,3,0,0,1,3-3h2.667a11.074,11.074,0,0,0,6.6-2.2l.486-.365.406.608A4.979,4.979,0,0,1,28,13.817V18A7.008,7.008,0,0,1,21,25Zm-5.279,6.394,2.1-.35a6.259,6.259,0,0,0,6.36,0l2.1.35a7.356,7.356,0,0,1,4.462,2.587,11.962,11.962,0,0,1-19.482,0A7.356,7.356,0,0,1,15.721,31.394Zm16.085.789a9.35,9.35,0,0,0-5.2-2.762L25,29.153v-3.1a9.007,9.007,0,0,0,4.94-7.043,11.923,11.923,0,0,1,1.866,13.176ZM30,51a1,1,0,0,1,1,1v8a1,1,0,0,1-1,1H4a1,1,0,0,1-1-1V52a1,1,0,0,1,1-1h9a1,1,0,0,0,.868-.5L17,45.016l3.132,5.48A1,1,0,0,0,21,51ZM19.241,44.906l-1.373-2.4a1.04,1.04,0,0,0-1.736,0l-.882,1.542A17.982,17.982,0,0,1,9.273,13.355a9.8,9.8,0,0,0,1.678,3.58l.147.2a14,14,0,1,0,19.8,0l.147-.2a9.8,9.8,0,0,0,1.678-3.58A17.993,17.993,0,0,1,21,45C20.413,45,19.824,44.963,19.241,44.906ZM51.758,61a3.217,3.217,0,0,1-2.293-.95L32.643,43.229a20.12,20.12,0,0,0,4.586-4.586L54.05,55.464A3.243,3.243,0,0,1,51.758,61Z"/><path d="M44.877,13.291l-1.839,6.434a1,1,0,0,0,1.6,1.043L50,16.3l5.358,4.466a1,1,0,0,0,1.6-1.042l-1.838-6.435,4.584-4.584A1,1,0,0,0,59,7H53.619L50.9,1.553a1.042,1.042,0,0,0-1.79,0L46.383,7H41a1,1,0,0,0-.707,1.707ZM47,9a1,1,0,0,0,.9-.553L50,4.236l2.105,4.211A1,1,0,0,0,53,9h3.586l-3.293,3.293a1,1,0,0,0-.255.981l1.108,3.88-3.5-2.922a1,1,0,0,0-1.281,0l-3.507,2.922,1.108-3.879a1,1,0,0,0-.255-.982L43.414,9Z"/><path d="M62.925,27.617A1,1,0,0,0,62,27H56.619L53.9,21.553a1.042,1.042,0,0,0-1.79,0L49.383,27H44a1,1,0,0,0-.707,1.707l4.584,4.584-1.839,6.434a1,1,0,0,0,1.6,1.043L53,36.3l5.358,4.466a1,1,0,0,0,1.6-1.042l-1.838-6.435,4.584-4.584A1,1,0,0,0,62.925,27.617Zm-6.631,4.676a1,1,0,0,0-.255.981l1.108,3.88-3.5-2.922a1,1,0,0,0-1.281,0l-3.507,2.922,1.108-3.879a1,1,0,0,0-.255-.982L46.414,29H50a1,1,0,0,0,.9-.553L53,24.236l2.105,4.211A1,1,0,0,0,56,29h3.586Z"/><rect x="5" y="57" width="24" height="2"/><rect x="7" y="53" width="20" height="2"/></svg>
