<svg id="Layer_1" enable-background="new 0 0 512 512" height="512" viewBox="0 0 512 512" width="512" xmlns="http://www.w3.org/2000/svg"><path d="m421.296 222.249c-.828-2.136-2.532-3.814-4.68-4.61-2.148-.795-4.535-.632-6.554.449l-38.964 20.856c-8.838 4.597-17.563 1.432-32.223-4.561-19.619-8.018-46.175-18.846-80.76 2.532-25.148-14.819-46.617-9.758-64.06-5.637-13.354 3.154-23.902 5.647-34.056-.066-.187-.105-.377-.203-.572-.292l-50.905-23.485c-3.992-1.84-8.721-.117-10.592 3.861 0 0-53.048 112.869-53.169 113.126-1.885 4.011.15 9.165 4.238 10.819.689.297 47.485 21.362 51.955 23.098 3.615 1.403 4.756 5.646 6.339 14.324.815 4.466 1.714 9.367 3.69 13.819l-7.569 14.152c-7.843 14.665-2.293 32.978 12.372 40.821 4.417 2.362 9.251 3.562 14.139 3.562.551 0 1.103-.031 1.655-.061-.865 4.68-.61 9.539.815 14.24 2.342 7.728 7.532 14.068 14.615 17.856 9.041 4.835 20.352 4.642 29.314-.501 2.612 6.029 7.189 11.254 13.419 14.586 8.244 4.409 18.296 4.697 26.794.791 3.085 7.476 7.585 12.09 14.218 16.512 6.299 4.199 15.878 4.39 22.965 2.243 6.422-1.946 11.881-5.865 15.718-11.197l10.313 5.672c4.598 2.529 9.574 3.729 14.484 3.729 10.652 0 20.993-5.646 26.479-15.62 2.871-5.221 4.015-10.936 3.639-16.491 1.253.158 2.509.238 3.76.238 10.652 0 20.994-5.647 26.479-15.621 2.725-4.953 3.888-10.37 3.657-15.677 2.146.475 4.317.721 6.476.721 10.652 0 20.993-5.646 26.479-15.62 4.341-7.893 4.713-16.959 1.801-24.887.046-.013.092-.021.137-.034 7.858-2.233 14.344-7.387 18.26-14.509 3.314-6.024 4.305-12.753 3.275-19.141l48.459-20.661c3.969-1.692 5.881-6.228 4.321-10.251zm-297.965 205.096c-6.885-3.683-9.491-12.281-5.809-19.166 0 0 14.063-26.293 14.073-26.313 3.622-6.772 12.421-9.415 19.18-5.802 6.763 3.616 9.413 12.4 5.797 19.16 0 0-14.093 26.344-14.099 26.355-3.615 6.756-12.404 9.371-19.142 5.766zm42.003 36.637c-3.637 1.102-7.465.732-10.78-1.041-6.764-3.619-9.424-12.408-5.809-19.166 0 0 19.097-35.701 19.105-35.716 3.582-6.696 12.394-9.347 19.143-5.739 6.633 3.545 9.319 12.576 5.798 19.16l-19.069 35.653c-1.772 3.315-4.751 5.747-8.388 6.849zm42.734 14.084c-3.638 1.104-7.466.733-10.78-1.04-6.885-3.682-9.491-12.28-5.808-19.167 0 0 15.41-28.815 15.419-28.833 3.626-6.78 12.406-9.421 19.179-5.802 6.767 3.616 9.414 12.399 5.797 19.161l-15.419 28.833c-1.772 3.315-4.751 5.747-8.388 6.848zm41.012 17.303c-3.637 1.104-7.465.733-10.78-1.04-6.885-3.682-9.491-12.28-5.808-19.167 0 0 13.484-25.214 13.493-25.231 3.622-6.774 12.418-9.418 19.179-5.8 6.764 3.619 9.419 12.402 5.796 19.16 0 0-13.493 25.23-13.493 25.23-1.772 3.315-4.751 5.747-8.387 6.848zm57.615-9.815c-3.764 6.841-12.392 9.347-19.235 5.583l-10.237-5.63 7.846-14.671c1.916-3.582 3.063-7.44 3.427-11.379.021.012.04.026.061.038l13.646 7.505c5.991 4.069 8.034 12.114 4.492 18.554zm90.689-101.88c-1.841 3.349-4.901 5.773-8.616 6.829-3.606 1.027-7.351.6-10.539-1.202l-54.947-31.037c-3.847-2.173-8.727-.815-10.9 3.031s-.816 8.728 3.031 10.9c0 0 55.823 31.505 56.265 31.726 6.73 3.893 9.207 12.456 5.508 19.182-3.763 6.843-12.391 9.347-19.234 5.583l-62.493-34.851c-3.85-2.167-8.729-.802-10.896 3.048-2.167 3.851-.802 8.729 3.048 10.896l47.312 26.629c6.843 3.852 9.378 12.496 5.651 19.271-3.762 6.842-12.391 9.35-19.234 5.584l-39.765-22.048c-2.441-2.919-5.435-5.367-8.878-7.201-7.083-3.787-15.237-4.583-22.966-2.243-.397.12-.787.253-1.176.388-.107-.411-.218-.823-.342-1.232-2.349-7.727-7.539-14.057-14.601-17.818-7.083-3.787-15.237-4.586-22.965-2.242-.397.12-.788.253-1.177.388-.107-.411-.218-.822-.342-1.231-2.349-7.727-7.539-14.058-14.601-17.819-6.52-3.485-13.759-4.319-20.48-2.888-.207-1.86-.582-3.717-1.139-5.55-2.349-7.727-7.539-14.057-14.601-17.817-7.082-3.788-15.237-4.584-22.965-2.243-4.914 1.489-9.264 4.134-12.757 7.681-1.678-8.778-4.545-19.579-15.842-23.965-4.448-1.727-43.34-19.253-44.038-19.567l46.325-98.564 43.415 20.029c15.496 8.569 30.639 4.992 45.287 1.53 14.934-3.527 29.174-6.884 45.925.566-3.849 3.213-7.682 6.733-11.465 10.556-14.951 15.107-34.062 29.373-56.803 42.4-1.971 1.129-3.369 3.042-3.845 5.263s.013 4.539 1.347 6.377c30.008 41.352 65.471 26.996 93.963 15.46 18.852-7.631 35.131-14.223 48.191-6.779l76.649 43.688c6.845 3.898 9.397 12.554 5.69 19.292zm10.729-26.025c-2.308-2.817-5.157-5.268-8.495-7.17l-76.65-43.688c-6.755-3.851-13.711-5.373-20.771-5.373-13.627 0-27.641 5.673-41.348 11.222-25.792 10.441-48.355 19.578-69.413-3.162 20.483-12.451 37.988-25.966 52.126-40.253 6.237-6.302 12.569-11.688 18.821-16.01 29.826-20.62 50.471-12.183 70.435-4.022 14.657 5.991 29.813 12.187 45.744 3.9l31.081-16.636 40.099 103.441zm-325.895-268.674-23.112 28.572c-1.426 1.763-3.534 2.838-5.799 2.958-.141.007-.281.011-.421.011-2.116 0-4.152-.839-5.656-2.343l-16.197-16.197c-3.124-3.124-3.124-8.189 0-11.313s8.189-3.124 11.313 0l9.912 9.911 17.521-21.661c2.779-3.435 7.816-3.967 11.251-1.188s3.967 7.815 1.188 11.25zm410.383-45.334h-73.888c-9.729 0-17.645 7.916-17.645 17.645v28.944h-46.838v-4.211c0-3.31-2.038-6.277-5.126-7.466l-11.138-4.287c-1.729-5.921-4.094-11.626-7.065-17.042l4.848-10.915c1.343-3.024.686-6.564-1.655-8.904l-17.27-17.269c-2.34-2.339-5.881-2.997-8.904-1.654l-10.919 4.849c-5.415-2.971-11.118-5.335-17.036-7.063l-4.289-11.142c-1.188-3.088-4.155-5.126-7.465-5.126h-24.422c-3.31 0-6.277 2.038-7.466 5.126l-4.289 11.142c-5.918 1.728-11.622 4.093-17.036 7.063l-10.919-4.85c-3.025-1.342-6.563-.685-8.904 1.655l-17.269 17.27c-2.34 2.34-2.998 5.879-1.654 8.904l4.849 10.917c-2.971 5.415-5.336 11.119-7.064 17.038l-11.14 4.288c-3.089 1.188-5.126 4.156-5.126 7.466v4.211h-46.837v-28.944c0-9.729-7.916-17.645-17.646-17.645h-73.889c-9.729 0-17.645 7.916-17.645 17.645v73.888c0 9.729 7.916 17.645 17.645 17.645h73.887c9.73 0 17.646-7.916 17.646-17.645v-28.944h46.837v4.211c0 3.31 2.038 6.277 5.126 7.466l11.138 4.287c1.729 5.921 4.094 11.627 7.065 17.042l-4.848 10.915c-1.343 3.024-.686 6.564 1.655 8.904l17.27 17.269c2.34 2.341 5.88 2.999 8.904 1.654l10.919-4.849c5.414 2.97 11.117 5.335 17.036 7.063l4.289 11.142c1.189 3.088 4.157 5.126 7.466 5.126h24.422c3.31 0 6.277-2.038 7.466-5.126l4.287-11.138c5.922-1.729 11.627-4.094 17.042-7.065l10.915 4.847c3.025 1.344 6.564.685 8.904-1.654l17.269-17.27c2.34-2.34 2.998-5.879 1.654-8.904l-4.85-10.919c2.971-5.415 5.335-11.118 7.063-17.036l11.142-4.289c3.088-1.189 5.126-4.157 5.126-7.466v-4.211h46.838v28.944c0 9.729 7.916 17.645 17.645 17.645h73.888c9.729 0 17.645-7.916 17.645-17.645v-73.887c.001-9.729-7.915-17.645-17.644-17.645zm-397.669 91.533c0 .892-.753 1.645-1.646 1.645h-73.887c-.892 0-1.645-.753-1.645-1.645v-73.888c0-.892.753-1.645 1.645-1.645h73.887c.892 0 1.646.753 1.646 1.645zm243.298-30.226-9.826 3.783c-2.461.947-4.298 3.047-4.909 5.613-1.699 7.139-4.518 13.938-8.378 20.207-1.383 2.247-1.57 5.031-.499 7.441l4.278 9.633-9.501 9.501-9.628-4.276c-2.411-1.072-5.196-.885-7.442.5-6.267 3.859-13.067 6.679-20.211 8.379-2.566.611-4.667 2.447-5.614 4.909l-3.781 9.822h-13.437l-3.783-9.826c-.947-2.461-3.047-4.298-5.613-4.909-7.14-1.699-13.938-4.518-20.206-8.378-2.247-1.384-5.033-1.57-7.442-.499l-9.633 4.278-9.501-9.501 4.276-9.628c1.071-2.411.884-5.195-.5-7.442-3.86-6.267-6.679-13.067-8.378-20.212-.611-2.566-2.447-4.667-4.909-5.615l-9.823-3.78v-13.436l9.825-3.782c2.462-.947 4.299-3.048 4.909-5.614 1.699-7.141 4.518-13.939 8.378-20.207 1.383-2.247 1.57-5.031.5-7.442l-4.278-9.631 9.501-9.501 9.633 4.278c2.411 1.071 5.194.884 7.442-.5 6.269-3.86 13.067-6.679 20.206-8.378 2.566-.611 4.667-2.447 5.614-4.909l3.781-9.826h13.437l3.782 9.826c.947 2.461 3.047 4.298 5.614 4.909 7.139 1.699 13.938 4.518 20.206 8.378 2.247 1.383 5.031 1.57 7.442.499l9.633-4.278 9.501 9.5-4.276 9.628c-1.071 2.411-.884 5.195.5 7.442 3.86 6.269 6.679 13.068 8.379 20.211.611 2.566 2.447 4.667 4.909 5.614l9.823 3.781v13.438zm156.016 30.226c0 .892-.753 1.645-1.645 1.645h-73.888c-.892 0-1.645-.753-1.645-1.645v-73.888c0-.892.753-1.645 1.645-1.645h73.888c.892 0 1.645.753 1.645 1.645zm-12.715-46.199-23.112 28.572c-1.426 1.763-3.534 2.838-5.799 2.958-.141.007-.281.011-.421.011-2.116 0-4.152-.839-5.656-2.343l-16.197-16.197c-3.124-3.124-3.124-8.189 0-11.313s8.189-3.124 11.313 0l9.912 9.911 17.521-21.661c2.778-3.435 7.816-3.967 11.251-1.188s3.967 7.815 1.188 11.25zm-225.531-45.06c-29.95 0-54.315 24.366-54.315 54.315s24.365 54.315 54.315 54.315c29.949 0 54.315-24.366 54.315-54.315s-24.366-54.315-54.315-54.315zm0 92.63c-21.127 0-38.315-17.188-38.315-38.315s17.188-38.315 38.315-38.315 38.315 17.188 38.315 38.315-17.188 38.315-38.315 38.315z"/></svg>