<svg version="1.1" id="Capa_1" xmlns="http://www.w3.org/2000/svg" xmlns:xlink="http://www.w3.org/1999/xlink" x="0px" y="0px" viewBox="0 0 512 512" style="enable-background:new 0 0 512 512;" xml:space="preserve">
<g>
	<g>
		<path style="fill:none;stroke:#000000;stroke-width:15;stroke-linecap:round;stroke-linejoin:round;stroke-miterlimit:10;" d="&#10;&#9;&#9;&#9;M280.244,9.866v82.488c0,14.505,11.759,26.264,26.264,26.264h82.488"/>
		<path style="fill:none;stroke:#000000;stroke-width:15;stroke-linecap:round;stroke-linejoin:round;stroke-miterlimit:10;" d="&#10;&#9;&#9;&#9;M7.5,107.28V27.7c0-11.15,9.05-20.2,20.2-20.2h241.66c6.97,0,13.65,2.77,18.58,7.69l95.73,95.74c4.92,4.92,7.69,11.6,7.69,18.57&#10;&#9;&#9;&#9;v97.9"/>
		<path style="fill:none;stroke:#000000;stroke-width:15;stroke-linecap:round;stroke-linejoin:round;stroke-miterlimit:10;" d="&#10;&#9;&#9;&#9;M7.5,142.28V484.3c0,11.15,9.05,20.2,20.2,20.2h259.86"/>
		<path style="fill:none;stroke:#000000;stroke-width:15;stroke-linecap:round;stroke-linejoin:round;stroke-miterlimit:10;" d="&#10;&#9;&#9;&#9;M391.36,441.47v42.83c0,11.15-9.04,20.2-20.2,20.2h-48.6"/>
		
			<line style="fill:none;stroke:#000000;stroke-width:15;stroke-linecap:round;stroke-linejoin:round;stroke-miterlimit:10;" x1="431.601" y1="459.015" x2="406.443" y2="433.858"/>
		
			<line style="fill:none;stroke:#000000;stroke-width:15;stroke-linecap:round;stroke-linejoin:round;stroke-miterlimit:10;" x1="434.858" y1="405.129" x2="460.172" y2="430.443"/>
		<path style="fill:none;stroke:#000000;stroke-width:15;stroke-linecap:round;stroke-linejoin:round;stroke-miterlimit:10;" d="&#10;&#9;&#9;&#9;M315.15,323.476l11.429,11.429l27.143-27.143c6.312-6.312,16.545-6.312,22.857,0v0c6.312,6.312,6.312,16.545,0,22.857&#10;&#9;&#9;&#9;l-38.572,38.572c-6.312,6.312-16.545,6.312-22.857,0l-22.857-22.857c-6.312-6.312-6.312-16.545,0-22.857v0&#10;&#9;&#9;&#9;C298.604,317.164,308.838,317.164,315.15,323.476z"/>
		
			<circle style="fill:none;stroke:#000000;stroke-width:15;stroke-linecap:round;stroke-linejoin:round;stroke-miterlimit:10;" cx="334.435" cy="334.435" r="88.894"/>
		<path style="fill:none;stroke:#000000;stroke-width:15;stroke-linecap:round;stroke-linejoin:round;stroke-miterlimit:10;" d="&#10;&#9;&#9;&#9;M441.67,277.89c8.93,16.88,13.98,36.12,13.98,56.55c0,66.94-54.27,121.21-121.21,121.21c-66.95,0-121.22-54.27-121.22-121.21&#10;&#9;&#9;&#9;c0-66.95,54.27-121.22,121.22-121.22c33.93,0,64.61,13.94,86.6,36.41"/>
		<path style="fill:none;stroke:#000000;stroke-width:15;stroke-linecap:round;stroke-linejoin:round;stroke-miterlimit:10;" d="&#10;&#9;&#9;&#9;M504.5,454.688l-28.572-28.572c-3.156-3.156-8.273-3.156-11.429,0L426.116,464.5c-3.156,3.156-3.156,8.273,0,11.429l28.572,28.572&#10;&#9;&#9;&#9;"/>
		<path style="fill:none;stroke:#000000;stroke-width:15;stroke-linecap:round;stroke-linejoin:round;stroke-miterlimit:10;" d="&#10;&#9;&#9;&#9;M49.927,47.907h187.89c5.579,0,10.102,4.523,10.102,10.102V72.15c0,5.579-4.523,10.102-10.102,10.102H49.927&#10;&#9;&#9;&#9;c-5.579,0-10.102-4.523-10.102-10.102V58.008C39.825,52.429,44.348,47.907,49.927,47.907z"/>
		
			<circle style="fill:none;stroke:#000000;stroke-width:15;stroke-linecap:round;stroke-linejoin:round;stroke-miterlimit:10;" cx="85.299" cy="142.285" r="27.707"/>
		<path style="fill:none;stroke:#000000;stroke-width:15;stroke-linecap:round;stroke-linejoin:round;stroke-miterlimit:10;" d="&#10;&#9;&#9;&#9;M85.299,169.992c-25.113,0.001-45.473,20.352-45.473,45.465v15.158c0,7.325,5.938,13.263,13.263,13.263h64.421&#10;&#9;&#9;&#9;c7.325,0,13.263-5.938,13.263-13.263v-15.158C130.772,190.344,110.412,169.993,85.299,169.992z"/>
		<path style="fill:none;stroke:#000000;stroke-width:15;stroke-linecap:round;stroke-linejoin:round;stroke-miterlimit:10;" d="&#10;&#9;&#9;&#9;M64.069,308.528H47.907c-4.463,0-8.081-3.618-8.081-8.081v-16.163c0-4.463,3.618-8.081,8.081-8.081h16.163&#10;&#9;&#9;&#9;c4.463,0,8.081,3.618,8.081,8.081v16.163C72.15,304.91,68.532,308.528,64.069,308.528z"/>
		<g>
			
				<line style="fill:none;stroke:#000000;stroke-width:15;stroke-linecap:round;stroke-linejoin:round;stroke-miterlimit:10;" x1="175.187" y1="276.203" x2="104.476" y2="276.203"/>
			
				<line style="fill:none;stroke:#000000;stroke-width:15;stroke-linecap:round;stroke-linejoin:round;stroke-miterlimit:10;" x1="175.187" y1="308.528" x2="104.476" y2="308.528"/>
		</g>
		<path style="fill:none;stroke:#000000;stroke-width:15;stroke-linecap:round;stroke-linejoin:round;stroke-miterlimit:10;" d="&#10;&#9;&#9;&#9;M64.069,386.311H47.907c-4.463,0-8.081-3.618-8.081-8.081v-16.163c0-4.463,3.618-8.081,8.081-8.081h16.163&#10;&#9;&#9;&#9;c4.463,0,8.081,3.618,8.081,8.081v16.163C72.15,382.693,68.532,386.311,64.069,386.311z"/>
		<g>
			
				<line style="fill:none;stroke:#000000;stroke-width:15;stroke-linecap:round;stroke-linejoin:round;stroke-miterlimit:10;" x1="175.187" y1="353.986" x2="104.476" y2="353.986"/>
			
				<line style="fill:none;stroke:#000000;stroke-width:15;stroke-linecap:round;stroke-linejoin:round;stroke-miterlimit:10;" x1="175.187" y1="386.311" x2="104.476" y2="386.311"/>
		</g>
		<path style="fill:none;stroke:#000000;stroke-width:15;stroke-linecap:round;stroke-linejoin:round;stroke-miterlimit:10;" d="&#10;&#9;&#9;&#9;M64.069,464.094H47.907c-4.463,0-8.081-3.618-8.081-8.081V439.85c0-4.463,3.618-8.081,8.081-8.081h16.163&#10;&#9;&#9;&#9;c4.463,0,8.081,3.618,8.081,8.081v16.163C72.15,460.475,68.532,464.094,64.069,464.094z"/>
		<g>
			
				<line style="fill:none;stroke:#000000;stroke-width:15;stroke-linecap:round;stroke-linejoin:round;stroke-miterlimit:10;" x1="175.187" y1="431.768" x2="104.476" y2="431.768"/>
			
				<line style="fill:none;stroke:#000000;stroke-width:15;stroke-linecap:round;stroke-linejoin:round;stroke-miterlimit:10;" x1="175.187" y1="464.094" x2="104.476" y2="464.094"/>
		</g>
	</g>
</g>
<g>
</g>
<g>
</g>
<g>
</g>
<g>
</g>
<g>
</g>
<g>
</g>
<g>
</g>
<g>
</g>
<g>
</g>
<g>
</g>
<g>
</g>
<g>
</g>
<g>
</g>
<g>
</g>
<g>
</g>
</svg>