<?xml version="1.0" encoding="UTF-8" standalone="no"?>
<!-- Created with Inkscape (http://www.inkscape.org/) -->

<svg
   version="1.1"
   id="svg4023"
   xml:space="preserve"
   width="682.66669"
   height="682.66669"
   viewBox="0 0 682.66669 682.66669"
   xmlns="http://www.w3.org/2000/svg"
   xmlns:svg="http://www.w3.org/2000/svg"><defs
     id="defs4027"><clipPath
       clipPathUnits="userSpaceOnUse"
       id="clipPath4037"><path
         d="M 0,512 H 512 V 0 H 0 Z"
         id="path4035" /></clipPath></defs><g
     id="g4029"
     transform="matrix(1.3333333,0,0,-1.3333333,0,682.66667)"><g
       id="g4031"><g
         id="g4033"
         clip-path="url(#clipPath4037)"><g
           id="g4039"
           transform="translate(158.2768,352.1815)"><path
             d="m 0,0 c 13.296,-4.493 27.537,-6.934 42.35,-6.934 30.25,0 58.122,10.166 80.401,27.26 19.699,-15.583 44.147,-25.409 70.813,-27.005 0.923,-0.055 1.704,0.688 1.704,1.613"
             style="fill:none;stroke:#000000;stroke-width:20;stroke-linecap:round;stroke-linejoin:round;stroke-miterlimit:10;stroke-dasharray:none;stroke-opacity:1"
             id="path4041" /></g><g
           id="g4043"
           transform="translate(158.3565,260.415)"><path
             d="M 0,0 H -16.757 C -43.854,0 -65.82,21.966 -65.82,49.063 v 0 c 0,27.097 21.966,49.064 49.063,49.064 l 16.757,0 z"
             style="fill:none;stroke:#000000;stroke-width:20;stroke-linecap:round;stroke-linejoin:round;stroke-miterlimit:10;stroke-dasharray:none;stroke-opacity:1"
             id="path4045" /></g><g
           id="g4047"
           transform="translate(353.6367,260.415)"><path
             d="M 0,0 H 16.757 C 43.854,0 65.82,21.966 65.82,49.063 v 0 c 0,27.097 -21.966,49.064 -49.063,49.064 L 0,98.127 Z"
             style="fill:none;stroke:#000000;stroke-width:20;stroke-linecap:round;stroke-linejoin:round;stroke-miterlimit:10;stroke-dasharray:none;stroke-opacity:1"
             id="path4049" /></g><g
           id="g4051"
           transform="translate(391.8048,358.4783)"><path
             d="M 0,0 V 7.717 C 0,82.72 -60.802,143.522 -135.805,143.522 v 0 C -210.808,143.522 -271.61,82.72 -271.61,7.717 V 0"
             style="fill:none;stroke:#000000;stroke-width:20;stroke-linecap:round;stroke-linejoin:round;stroke-miterlimit:10;stroke-dasharray:none;stroke-opacity:1"
             id="path4053" /></g><g
           id="g4055"
           transform="translate(353.3962,357.1926)"><path
             d="m 0,0 v 7.408 c 0,53.706 -43.693,97.399 -97.4,97.399 -53.706,0 -97.399,-43.693 -97.399,-97.399 V 0"
             style="fill:none;stroke:#000000;stroke-width:20;stroke-linecap:round;stroke-linejoin:round;stroke-miterlimit:10;stroke-dasharray:none;stroke-opacity:1"
             id="path4057" /></g><g
           id="g4059"
           transform="translate(286.0859,250.9912)"><path
             d="M 0,0 H 56.664"
             style="fill:none;stroke:#000000;stroke-width:20;stroke-linecap:round;stroke-linejoin:round;stroke-miterlimit:10;stroke-dasharray:none;stroke-opacity:1"
             id="path4061" /></g><g
           id="g4063"
           transform="translate(263.133,271.071)"><path
             d="m 0,0 h -13.387 c -11.089,0 -20.079,-8.99 -20.079,-20.08 v 0 c 0,-11.09 8.99,-20.08 20.079,-20.08 H 0 c 11.09,0 20.08,8.99 20.08,20.08 v 0 C 20.08,-8.99 11.09,0 0,0 Z"
             style="fill:none;stroke:#000000;stroke-width:20;stroke-linecap:round;stroke-linejoin:round;stroke-miterlimit:10;stroke-dasharray:none;stroke-opacity:1"
             id="path4065" /></g><g
           id="g4067"
           transform="translate(158.3565,337.7851)"><path
             d="m 0,0 v -49.39 c 0,-53.927 43.716,-97.643 97.643,-97.643 h 0.001 c 53.927,0 97.643,43.716 97.643,97.643 v 44.494"
             style="fill:none;stroke:#000000;stroke-width:20;stroke-linecap:round;stroke-linejoin:round;stroke-miterlimit:10;stroke-dasharray:none;stroke-opacity:1"
             id="path4069" /></g><g
           id="g4071"
           transform="translate(214.2264,164.6742)"><path
             d="M 0,0 V 33.895"
             style="fill:none;stroke:#000000;stroke-width:20;stroke-linecap:round;stroke-linejoin:round;stroke-miterlimit:10;stroke-dasharray:none;stroke-opacity:1"
             id="path4073" /></g><g
           id="g4075"
           transform="translate(210.9997,10)"><path
             d="m 0,0 h -201 v 0 c 0,81.515 66.081,147.595 147.596,147.595 h 31.155"
             style="fill:none;stroke:#000000;stroke-width:20;stroke-linecap:round;stroke-linejoin:round;stroke-miterlimit:10;stroke-dasharray:none;stroke-opacity:1"
             id="path4077" /></g><g
           id="g4079"
           transform="translate(321.5941,157.5955)"><path
             d="m 0,0 h 32.811 c 81.514,0 147.595,-66.081 147.595,-147.595 v 0 h -201"
             style="fill:none;stroke:#000000;stroke-width:20;stroke-linecap:round;stroke-linejoin:round;stroke-miterlimit:10;stroke-dasharray:none;stroke-opacity:1"
             id="path4081" /></g><g
           id="g4083"
           transform="translate(297.7736,198.5696)"><path
             d="M 0,0 V -33.895"
             style="fill:none;stroke:#000000;stroke-width:20;stroke-linecap:round;stroke-linejoin:round;stroke-miterlimit:10;stroke-dasharray:none;stroke-opacity:1"
             id="path4085" /></g><g
           id="g4087"
           transform="translate(255.9109,122.8121)"><path
             d="M 0,0 47.898,-47.898 95.203,21.646 44.299,44.299 0,0"
             style="fill:none;stroke:#000000;stroke-width:20;stroke-linecap:round;stroke-linejoin:round;stroke-miterlimit:10;stroke-dasharray:none;stroke-opacity:1"
             id="path4089" /></g><g
           id="g4091"
           transform="translate(255.9109,122.8121)"><path
             d="M 0,0 -47.898,-47.898 -95.203,21.646 -44.299,44.299 0,0"
             style="fill:none;stroke:#000000;stroke-width:20;stroke-linecap:round;stroke-linejoin:round;stroke-miterlimit:10;stroke-dasharray:none;stroke-opacity:1"
             id="path4093" /></g><g
           id="g4095"
           transform="translate(256,10)"><path
             d="M 0,0 V 0"
             style="fill:none;stroke:#000000;stroke-width:20;stroke-linecap:round;stroke-linejoin:round;stroke-miterlimit:10;stroke-dasharray:none;stroke-opacity:1"
             id="path4097" /></g></g></g></g></svg>
